# Blender v2.78 (sub 0) OBJ File: 'helicopter.blend'
# www.blender.org
o Cabine
v -1.000000 0.329105 -2.254148
v -0.387686 0.429733 -4.759565
v 0.387686 0.429733 -4.759565
v 1.000000 0.329105 -2.254148
v -1.000000 2.327494 -2.173885
v -0.266638 1.218258 -4.220050
v 0.266639 1.218258 -4.220049
v 1.000000 2.327494 -2.173885
v -0.695216 0.461340 2.048078
v 0.695215 0.461340 2.048079
v -0.695216 1.850651 2.103878
v 0.695216 1.850651 2.103879
v 0.107404 1.208505 3.917524
v -0.107405 1.208505 3.917524
v -0.107405 1.659297 3.935630
v 0.107404 1.659297 3.935630
v 0.107404 1.432955 4.500548
v -0.107405 1.432955 4.500548
v -0.107405 1.688324 4.836946
v 0.107404 1.688324 4.836946
v -0.107405 2.142291 4.424630
v 0.107404 2.142291 4.424630
v -0.066827 2.592466 5.206010
v 0.066826 2.592466 5.206010
v -0.505554 2.475838 -1.105631
v 0.505554 2.475838 -1.105631
v -0.351469 2.234769 1.057010
v 0.351469 2.234769 1.057010
v -0.297217 2.393871 -0.411994
v 0.297216 2.393871 -0.411994
v -0.283725 2.319354 0.298199
v 0.283725 2.319353 0.298200
v -0.150785 2.826303 -0.133509
v 0.150784 2.826303 -0.133509
v -0.151317 2.824750 0.141312
v 0.151316 2.824750 0.141312
vn 0.0000 -0.9992 -0.0401
vn 0.0000 0.8791 -0.4766
vn -0.9320 0.2909 -0.2161
vn 0.0000 0.5647 -0.8253
vn 0.9320 0.2909 -0.2161
vn -0.5340 0.8353 0.1312
vn 0.9975 -0.0028 0.0708
vn -0.0000 -0.9995 0.0307
vn -0.9975 -0.0028 0.0708
vn 0.9525 -0.0122 0.3044
vn 0.0000 -0.9286 0.3711
vn 0.0000 0.9946 0.1039
vn -0.9525 -0.0122 0.3044
vn 1.0000 -0.0000 0.0000
vn 0.0000 -0.9332 0.3593
vn -1.0000 -0.0000 0.0000
vn 0.0000 -0.7965 0.6046
vn 0.0000 0.7115 -0.7027
vn 0.9989 0.0309 0.0341
vn 0.0000 -0.3779 0.9258
vn 0.0468 0.9935 0.1034
vn 0.5340 0.8353 0.1312
vn -0.0000 0.9388 0.3445
vn 0.0000 0.9905 -0.1375
vn 0.0000 0.8665 -0.4992
vn -0.0000 0.2965 0.9550
vn 0.0000 0.9931 0.1174
vn -0.0000 0.9938 0.1108
vn -0.9552 0.2920 0.0488
vn 0.0000 0.5414 -0.8407
vn 0.9674 0.2533 -0.0004
vn -0.0000 1.0000 0.0057
vn -0.9389 0.0138 -0.3440
vn 0.9389 0.0138 -0.3440
vn -0.9989 0.0309 0.0341
vn -0.0468 0.9935 0.1034
vn -0.9674 0.2533 -0.0004
vn 0.9552 0.2920 0.0488
s off
f 2//1 4//1 1//1
f 5//2 7//2 6//2
f 1//3 6//3 2//3
f 6//4 3//4 2//4
f 7//5 4//5 3//5
f 11//6 25//6 5//6
f 8//7 10//7 4//7
f 1//8 10//8 9//8
f 1//9 11//9 5//9
f 12//10 13//10 10//10
f 9//11 13//11 14//11
f 11//12 16//12 12//12
f 11//13 14//13 15//13
f 16//14 17//14 13//14
f 13//15 18//15 14//15
f 15//16 18//16 19//16
f 17//17 19//17 18//17
f 21//18 16//18 15//18
f 20//19 22//19 24//19
f 19//16 21//16 15//16
f 20//20 23//20 19//20
f 25//21 31//21 29//21
f 12//22 26//22 28//22
f 11//23 28//23 27//23
f 8//24 25//24 26//24
f 23//25 22//25 21//25
f 31//26 36//26 35//26
f 26//27 29//27 30//27
f 26//28 32//28 28//28
f 27//28 32//28 31//28
f 31//29 33//29 29//29
f 30//30 33//30 34//30
f 32//31 34//31 36//31
f 34//32 35//32 36//32
f 2//1 3//1 4//1
f 5//2 8//2 7//2
f 1//33 5//33 6//33
f 6//4 7//4 3//4
f 7//34 8//34 4//34
f 11//6 27//6 25//6
f 8//7 12//7 10//7
f 1//8 4//8 10//8
f 1//9 9//9 11//9
f 12//10 16//10 13//10
f 9//11 10//11 13//11
f 11//12 15//12 16//12
f 11//13 9//13 14//13
f 16//14 20//14 17//14
f 13//15 17//15 18//15
f 15//16 14//16 18//16
f 17//17 20//17 19//17
f 21//18 22//18 16//18
f 20//14 16//14 22//14
f 19//35 23//35 21//35
f 20//20 24//20 23//20
f 25//28 27//28 31//28
f 12//22 8//22 26//22
f 11//23 12//23 28//23
f 8//24 5//24 25//24
f 23//25 24//25 22//25
f 31//26 32//26 36//26
f 26//27 25//27 29//27
f 26//36 30//36 32//36
f 27//28 28//28 32//28
f 31//37 35//37 33//37
f 30//30 29//30 33//30
f 32//38 30//38 34//38
f 34//32 33//32 35//32
