# Blender v2.78 (sub 0) OBJ File: 'helicopter.blend'
# www.blender.org
o HeliceTop
v -0.081330 2.991248 0.133004
v -0.081330 2.916412 0.133004
v 0.081330 2.916412 0.133004
v 0.081330 2.991248 0.133004
v -0.130326 2.823505 0.128488
v -0.130326 3.084156 0.128488
v 0.130326 2.823505 0.128488
v 0.130326 3.084156 0.128488
v 0.034849 2.589281 4.011491
v -0.034848 2.589281 4.011491
v -0.034848 2.557404 4.011491
v 0.034849 2.557404 4.011491
v -0.051177 2.985277 1.244506
v 0.051178 2.985277 1.244506
v 0.051178 2.922384 1.244506
v -0.051177 2.922384 1.244506
v -0.041855 2.790062 2.838575
v 0.041855 2.744876 2.838575
v 0.041855 2.790062 2.838575
v -0.041855 2.744876 2.838575
v -0.081330 2.991248 -0.127647
v -0.081330 2.916412 -0.127647
v 0.081330 2.916412 -0.127647
v 0.081330 2.991248 -0.127647
v -0.130326 2.823505 -0.132163
v -0.130326 3.084156 -0.132163
v 0.130326 2.823505 -0.132163
v 0.130326 3.084156 -0.132163
v 0.034848 2.589281 -4.006134
v -0.034849 2.589281 -4.006134
v -0.034849 2.557404 -4.006134
v 0.034848 2.557404 -4.006134
v -0.051178 2.985277 -1.239148
v 0.051177 2.985277 -1.239148
v 0.051177 2.922384 -1.239148
v -0.051178 2.922384 -1.239148
v -0.041855 2.790062 -2.833217
v 0.041855 2.744876 -2.833217
v 0.041855 2.790062 -2.833217
v -0.041855 2.744876 -2.833217
v -0.130326 2.991248 -0.087684
v -0.130326 2.916412 -0.087684
v -0.130326 2.916412 0.074976
v -0.130326 2.991248 0.074976
v -4.008812 2.589281 0.028494
v -4.008812 2.589281 -0.041203
v -4.008812 2.557404 -0.041203
v -4.008812 2.557404 0.028494
v -1.241827 2.985277 -0.057532
v -1.241827 2.985277 0.044823
v -1.241827 2.922384 0.044823
v -1.241827 2.922384 -0.057532
v -2.835896 2.790062 -0.048209
v -2.835896 2.744876 0.035501
v -2.835896 2.790062 0.035501
v -2.835896 2.744876 -0.048209
v 0.130326 2.991248 -0.087684
v 0.130326 2.916412 -0.087684
v 0.130326 2.916412 0.074976
v 0.130326 2.991248 0.074976
v 4.008812 2.589281 0.028494
v 4.008812 2.589281 -0.041203
v 4.008812 2.557404 -0.041203
v 4.008812 2.557404 0.028494
v 1.241827 2.985277 -0.057532
v 1.241827 2.985277 0.044823
v 1.241827 2.922384 0.044823
v 1.241827 2.922384 -0.057532
v 2.835896 2.790062 -0.048209
v 2.835896 2.744876 0.035501
v 2.835896 2.790062 0.035501
v 2.835896 2.744876 -0.048209
vn 0.0000 -0.0486 0.9988
vn -0.0000 0.0486 0.9988
vn -0.0918 0.0000 0.9958
vn 0.0918 0.0000 0.9958
vn 0.0000 0.0000 1.0000
vn 0.0000 0.9857 0.1687
vn 0.0000 -0.9875 -0.1578
vn 1.0000 0.0000 0.0060
vn -1.0000 0.0000 0.0060
vn -0.9996 0.0000 0.0271
vn 0.9996 0.0000 0.0271
vn 0.0000 -1.0000 0.0054
vn 0.0000 1.0000 0.0054
vn -1.0000 0.0000 0.0058
vn 1.0000 0.0000 0.0058
vn 0.0000 -0.9939 -0.1107
vn 0.0000 0.9926 0.1216
vn 0.0000 0.0486 -0.9988
vn 0.0000 -0.0486 -0.9988
vn 0.0918 0.0000 -0.9958
vn -0.0918 0.0000 -0.9958
vn 0.0000 0.0000 -1.0000
vn 0.0000 0.9857 -0.1687
vn 0.0000 -0.9875 0.1578
vn 1.0000 0.0000 -0.0060
vn -1.0000 0.0000 -0.0060
vn -0.9996 0.0000 -0.0271
vn 0.9996 0.0000 -0.0271
vn 0.0000 -1.0000 -0.0054
vn 0.0000 1.0000 -0.0054
vn -1.0000 0.0000 -0.0058
vn 1.0000 0.0000 -0.0058
vn 0.0000 -0.9939 0.1107
vn 0.0000 0.9926 -0.1216
vn -1.0000 0.0000 0.0000
vn -0.1687 0.9857 0.0000
vn 0.1578 -0.9875 0.0000
vn -0.0060 0.0000 1.0000
vn -0.0060 0.0000 -1.0000
vn -0.0271 0.0000 -0.9996
vn -0.0271 0.0000 0.9996
vn -0.0054 -1.0000 0.0000
vn -0.0054 1.0000 0.0000
vn -0.0058 0.0000 -1.0000
vn -0.0058 0.0000 1.0000
vn 0.1107 -0.9939 0.0000
vn -0.1216 0.9926 0.0000
vn 1.0000 -0.0000 0.0000
vn 0.1687 0.9857 0.0000
vn -0.1578 -0.9875 0.0000
vn 0.0060 0.0000 1.0000
vn 0.0060 0.0000 -1.0000
vn 0.0271 0.0000 -0.9996
vn 0.0271 0.0000 0.9996
vn 0.0054 -1.0000 0.0000
vn 0.0054 1.0000 0.0000
vn 0.0058 0.0000 -1.0000
vn 0.0058 0.0000 1.0000
vn -0.1107 -0.9939 0.0000
vn 0.1216 0.9926 0.0000
vn 0.0000 1.0000 0.0000
vn 0.0000 -1.0000 0.0000
s off
f 5//1 3//1 2//1
f 6//2 4//2 8//2
f 5//3 1//3 6//3
f 8//4 3//4 7//4
f 9//5 11//5 12//5
f 17//6 9//6 19//6
f 18//7 11//7 20//7
f 18//8 9//8 12//8
f 20//9 10//9 17//9
f 2//10 13//10 1//10
f 4//11 15//11 3//11
f 3//12 16//12 2//12
f 1//13 14//13 4//13
f 16//14 17//14 13//14
f 15//15 19//15 18//15
f 15//16 20//16 16//16
f 13//17 19//17 14//17
f 22//18 27//18 25//18
f 24//19 26//19 28//19
f 21//20 25//20 26//20
f 23//21 28//21 27//21
f 31//22 29//22 32//22
f 29//23 37//23 39//23
f 31//24 38//24 40//24
f 38//25 29//25 39//25
f 30//26 40//26 37//26
f 33//27 22//27 21//27
f 35//28 24//28 23//28
f 36//29 23//29 22//29
f 34//30 21//30 24//30
f 37//31 36//31 33//31
f 35//32 39//32 34//32
f 40//33 35//33 36//33
f 39//34 33//34 34//34
f 25//35 43//35 42//35
f 26//35 44//35 6//35
f 25//35 41//35 26//35
f 6//35 43//35 5//35
f 45//35 47//35 48//35
f 53//36 45//36 55//36
f 54//37 47//37 56//37
f 54//38 45//38 48//38
f 56//39 46//39 53//39
f 42//40 49//40 41//40
f 44//41 51//41 43//41
f 43//42 52//42 42//42
f 41//43 50//43 44//43
f 52//44 53//44 49//44
f 51//45 55//45 54//45
f 51//46 56//46 52//46
f 49//47 55//47 50//47
f 27//48 59//48 7//48
f 60//48 28//48 8//48
f 57//48 27//48 28//48
f 59//48 8//48 7//48
f 63//48 61//48 64//48
f 61//49 69//49 71//49
f 63//50 70//50 72//50
f 70//51 61//51 71//51
f 62//52 72//52 69//52
f 65//53 58//53 57//53
f 67//54 60//54 59//54
f 68//55 59//55 58//55
f 66//56 57//56 60//56
f 69//57 68//57 65//57
f 67//58 71//58 66//58
f 72//59 67//59 68//59
f 71//60 65//60 66//60
f 8//61 26//61 6//61
f 5//62 27//62 7//62
f 5//1 7//1 3//1
f 6//2 1//2 4//2
f 5//3 2//3 1//3
f 8//4 4//4 3//4
f 9//5 10//5 11//5
f 17//6 10//6 9//6
f 18//7 12//7 11//7
f 18//8 19//8 9//8
f 20//9 11//9 10//9
f 2//10 16//10 13//10
f 4//11 14//11 15//11
f 3//12 15//12 16//12
f 1//13 13//13 14//13
f 16//14 20//14 17//14
f 15//15 14//15 19//15
f 15//16 18//16 20//16
f 13//17 17//17 19//17
f 22//18 23//18 27//18
f 24//19 21//19 26//19
f 21//20 22//20 25//20
f 23//21 24//21 28//21
f 31//22 30//22 29//22
f 29//23 30//23 37//23
f 31//24 32//24 38//24
f 38//25 32//25 29//25
f 30//26 31//26 40//26
f 33//27 36//27 22//27
f 35//28 34//28 24//28
f 36//29 35//29 23//29
f 34//30 33//30 21//30
f 37//31 40//31 36//31
f 35//32 38//32 39//32
f 40//33 38//33 35//33
f 39//34 37//34 33//34
f 25//35 5//35 43//35
f 26//35 41//35 44//35
f 25//35 42//35 41//35
f 6//35 44//35 43//35
f 45//35 46//35 47//35
f 53//36 46//36 45//36
f 54//37 48//37 47//37
f 54//38 55//38 45//38
f 56//39 47//39 46//39
f 42//40 52//40 49//40
f 44//41 50//41 51//41
f 43//42 51//42 52//42
f 41//43 49//43 50//43
f 52//44 56//44 53//44
f 51//45 50//45 55//45
f 51//46 54//46 56//46
f 49//47 53//47 55//47
f 27//48 58//48 59//48
f 60//48 57//48 28//48
f 57//48 58//48 27//48
f 59//48 60//48 8//48
f 63//48 62//48 61//48
f 61//49 62//49 69//49
f 63//50 64//50 70//50
f 70//51 64//51 61//51
f 62//52 63//52 72//52
f 65//53 68//53 58//53
f 67//54 66//54 60//54
f 68//55 67//55 59//55
f 66//56 65//56 57//56
f 69//57 72//57 68//57
f 67//58 70//58 71//58
f 72//59 70//59 67//59
f 71//60 69//60 65//60
f 8//61 28//61 26//61
f 5//62 25//62 27//62
