# Blender v2.78 (sub 0) OBJ File: 'helicopter.blend'
# www.blender.org
o HeliceSide
v 0.229116 2.103494 4.778904
v 0.229116 2.203671 4.778904
v 0.229116 2.103494 4.879081
v 0.229116 2.203671 4.879081
v 0.006292 2.042171 4.717581
v 0.006292 2.264995 4.717581
v 0.006292 2.042171 4.940404
v 0.006292 2.264995 4.940404
v 0.329114 2.103494 4.778904
v 0.329114 2.203671 4.778904
v 0.329114 2.103494 4.879081
v 0.329114 2.203671 4.879081
v 0.254115 2.128539 4.778904
v 0.254115 2.178627 4.778904
v 0.304114 2.128539 4.778904
v 0.304114 2.178627 4.778904
v 0.254115 2.203671 4.803948
v 0.254115 2.203671 4.854036
v 0.304114 2.203671 4.803948
v 0.304114 2.203671 4.854036
v 0.254115 2.178627 4.879081
v 0.254115 2.128539 4.879081
v 0.304114 2.178627 4.879081
v 0.304114 2.128539 4.879081
v 0.254115 2.103494 4.854036
v 0.254115 2.103494 4.803948
v 0.304114 2.103494 4.854036
v 0.304114 2.103494 4.803948
v 0.233435 2.703671 4.816470
v 0.233435 2.703671 4.841515
v 0.258434 2.703671 4.816470
v 0.258434 2.703671 4.841515
v 0.233435 2.141061 4.278904
v 0.233435 2.166105 4.278904
v 0.258434 2.141061 4.278904
v 0.258434 2.166105 4.278904
v 0.233435 1.603494 4.841515
v 0.233435 1.603494 4.816470
v 0.258434 1.603494 4.841515
v 0.258434 1.603494 4.816470
v 0.233435 2.166105 5.379081
v 0.233435 2.141061 5.379081
v 0.258434 2.166105 5.379081
v 0.258434 2.141061 5.379081
v 0.259115 2.363671 4.808957
v 0.299114 2.363671 4.808957
v 0.299114 2.363671 4.849028
v 0.259115 2.363671 4.849028
v 0.259115 2.133548 5.039081
v 0.259115 2.173618 5.039081
v 0.299114 2.133548 5.039081
v 0.299114 2.173618 5.039081
v 0.299114 2.173618 4.618904
v 0.259115 2.173618 4.618904
v 0.259115 2.133548 4.618904
v 0.299114 2.133548 4.618904
v 0.299114 1.943494 4.808957
v 0.259115 1.943494 4.808957
v 0.259115 1.943494 4.849028
v 0.299114 1.943494 4.849028
vn 0.0000 1.0000 0.0000
vn 0.2653 0.0000 0.9642
vn -1.0000 0.0000 0.0000
vn 0.2653 0.0000 -0.9642
vn 0.2653 -0.9642 0.0000
vn 0.2653 0.9642 0.0000
vn 1.0000 0.0000 0.0000
vn 0.0000 -1.0000 0.0000
vn 0.0000 0.0000 1.0000
vn 0.0000 0.0000 -1.0000
vn 0.0000 0.0221 -0.9998
vn 0.0000 -0.0221 -0.9998
vn -0.9972 0.0000 -0.0753
vn 0.9929 0.1188 0.0000
vn 0.0000 0.0221 0.9998
vn -0.9972 -0.0753 0.0000
vn 0.0000 0.9998 -0.0221
vn -0.9972 0.0000 0.0753
vn 0.0000 -0.9998 -0.0221
vn 0.9929 0.0000 -0.1188
vn -0.9972 0.0753 0.0000
vn 0.0000 -0.0221 0.9998
vn 0.9929 -0.1188 0.0000
vn 0.0000 -0.9998 0.0221
vn 0.9929 0.0000 0.1188
vn 0.0000 0.9998 0.0221
vn -0.9995 0.0312 0.0000
vn 0.0000 0.0313 0.9995
vn 0.9995 0.0312 0.0000
vn 0.0000 0.0313 -0.9995
vn 0.0000 0.9995 0.0313
vn 0.9995 0.0000 0.0312
vn 0.0000 -0.9995 0.0313
vn -0.9995 0.0000 0.0312
vn 0.9995 0.0000 -0.0312
vn 0.0000 -0.9995 -0.0313
vn -0.9995 0.0000 -0.0312
vn 0.0000 0.9995 -0.0313
vn 0.9995 -0.0312 0.0000
vn 0.0000 -0.0313 0.9995
vn -0.9995 -0.0312 0.0000
vn 0.0000 -0.0313 -0.9995
s off
f 10//1 17//1 19//1
f 3//2 8//2 7//2
f 8//3 5//3 7//3
f 6//4 1//4 5//4
f 7//5 1//5 3//5
f 8//6 2//6 6//6
f 10//7 11//7 9//7
f 11//8 25//8 27//8
f 11//9 22//9 3//9
f 10//10 14//10 2//10
f 9//10 16//10 10//10
f 1//10 15//10 9//10
f 2//10 13//10 1//10
f 45//11 31//11 46//11
f 4//1 17//1 2//1
f 12//1 18//1 4//1
f 10//1 20//1 12//1
f 12//9 24//9 11//9
f 4//9 23//9 12//9
f 3//9 21//9 4//9
f 58//12 40//12 38//12
f 1//8 25//8 3//8
f 9//8 26//8 1//8
f 11//8 28//8 9//8
f 49//13 41//13 50//13
f 30//1 31//1 29//1
f 46//14 32//14 47//14
f 48//15 32//15 30//15
f 48//16 29//16 45//16
f 54//17 36//17 34//17
f 34//10 35//10 33//10
f 54//18 33//18 55//18
f 55//19 35//19 56//19
f 56//20 36//20 53//20
f 38//8 39//8 37//8
f 58//21 37//21 59//21
f 59//22 39//22 60//22
f 60//23 40//23 57//23
f 42//9 43//9 41//9
f 49//24 44//24 42//24
f 52//25 44//25 51//25
f 50//26 43//26 52//26
f 18//27 45//27 17//27
f 20//28 48//28 18//28
f 19//29 47//29 20//29
f 17//30 46//30 19//30
f 21//31 52//31 23//31
f 23//32 51//32 24//32
f 24//33 49//33 22//33
f 22//34 50//34 21//34
f 15//35 53//35 16//35
f 13//36 56//36 15//36
f 14//37 55//37 13//37
f 16//38 54//38 14//38
f 27//39 57//39 28//39
f 25//40 60//40 27//40
f 26//41 59//41 25//41
f 28//42 58//42 26//42
f 10//1 2//1 17//1
f 3//2 4//2 8//2
f 8//3 6//3 5//3
f 6//4 2//4 1//4
f 7//5 5//5 1//5
f 8//6 4//6 2//6
f 10//7 12//7 11//7
f 11//8 3//8 25//8
f 11//9 24//9 22//9
f 10//10 16//10 14//10
f 9//10 15//10 16//10
f 1//10 13//10 15//10
f 2//10 14//10 13//10
f 45//11 29//11 31//11
f 4//1 18//1 17//1
f 12//1 20//1 18//1
f 10//1 19//1 20//1
f 12//9 23//9 24//9
f 4//9 21//9 23//9
f 3//9 22//9 21//9
f 58//12 57//12 40//12
f 1//8 26//8 25//8
f 9//8 28//8 26//8
f 11//8 27//8 28//8
f 49//13 42//13 41//13
f 30//1 32//1 31//1
f 46//14 31//14 32//14
f 48//15 47//15 32//15
f 48//16 30//16 29//16
f 54//17 53//17 36//17
f 34//10 36//10 35//10
f 54//18 34//18 33//18
f 55//19 33//19 35//19
f 56//20 35//20 36//20
f 38//8 40//8 39//8
f 58//21 38//21 37//21
f 59//22 37//22 39//22
f 60//23 39//23 40//23
f 42//9 44//9 43//9
f 49//24 51//24 44//24
f 52//25 43//25 44//25
f 50//26 41//26 43//26
f 18//27 48//27 45//27
f 20//28 47//28 48//28
f 19//29 46//29 47//29
f 17//30 45//30 46//30
f 21//31 50//31 52//31
f 23//32 52//32 51//32
f 24//33 51//33 49//33
f 22//34 49//34 50//34
f 15//35 56//35 53//35
f 13//36 55//36 56//36
f 14//37 54//37 55//37
f 16//38 53//38 54//38
f 27//39 60//39 57//39
f 25//40 59//40 60//40
f 26//41 58//41 59//41
f 28//42 57//42 58//42
