v 0.000000 0.980785 0.195090
v 0.000000 0.923880 0.382683
v 0.000000 0.707107 0.707107
v 0.000000 0.555570 0.831470
v 0.000000 0.382683 0.923880
v 0.000000 -0.195090 0.980785
v 0.000000 -0.555570 0.831470
v 0.000000 -0.707107 0.707107
v 0.000000 -0.831470 0.555570
v 0.000000 -0.923880 0.382683
v 0.000000 -0.980785 0.195090
v 0.000000 -1.000000 -0.000000
v -0.097545 0.980785 0.168953
v -0.191342 0.923880 0.331414
v -0.277785 0.831470 0.481138
v -0.353554 0.707107 0.612372
v -0.415735 0.555570 0.720074
v -0.461940 0.382683 0.800103
v -0.490393 0.195090 0.849385
v -0.500000 0.000000 0.866025
v -0.490393 -0.195090 0.849385
v -0.461940 -0.382683 0.800103
v -0.415735 -0.555570 0.720074
v -0.353554 -0.707107 0.612372
v -0.277785 -0.831470 0.481138
v -0.191342 -0.923880 0.331413
v -0.097545 -0.980785 0.168953
v -0.168953 0.980785 0.097545
v -0.331414 0.923880 0.191342
v -0.481138 0.831470 0.277785
v -0.612373 0.707107 0.353553
v -0.720074 0.555570 0.415735
v -0.800103 0.382683 0.461940
v -0.849385 0.195090 0.490392
v -0.866026 0.000000 0.500000
v -0.849385 -0.195090 0.490392
v -0.800103 -0.382683 0.461940
v -0.720074 -0.555570 0.415735
v -0.612373 -0.707107 0.353553
v -0.481138 -0.831470 0.277785
v -0.331414 -0.923880 0.191341
v -0.168953 -0.980785 0.097545
v -0.195091 0.980785 -0.000000
v -0.382684 0.923880 -0.000000
v -0.555571 0.831470 -0.000000
v -0.707107 0.707107 -0.000000
v -0.831470 0.555570 -0.000000
v -0.923880 0.382683 -0.000000
v -0.980786 0.195090 -0.000000
v -1.000000 0.000000 -0.000000
v -0.980786 -0.195090 -0.000000
v -0.923880 -0.382683 -0.000000
v -0.831470 -0.555570 -0.000000
v -0.707107 -0.707107 -0.000000
v -0.555570 -0.831470 -0.000000
v -0.382684 -0.923880 -0.000000
v -0.195090 -0.980785 -0.000000
v -0.168953 0.980785 -0.097546
v -0.331414 0.923880 -0.191342
v -0.481138 0.831470 -0.277786
v -0.612373 0.707107 -0.353554
v -0.720074 0.555570 -0.415735
v -0.800103 0.382683 -0.461940
v -0.849385 0.195090 -0.490393
v -0.866026 0.000000 -0.500000
v -0.849385 -0.195090 -0.490393
v -0.800103 -0.382683 -0.461940
v -0.720074 -0.555570 -0.415735
v -0.612373 -0.707107 -0.353554
v -0.481138 -0.831470 -0.277786
v -0.331414 -0.923880 -0.191342
v -0.168953 -0.980785 -0.097546
v -0.097545 0.980785 -0.168954
v -0.191342 0.923880 -0.331414
v -0.277785 0.831470 -0.481138
v -0.353554 0.707107 -0.612373
v -0.415735 0.555570 -0.720074
v -0.461940 0.382683 -0.800104
v -0.490393 0.195090 -0.849386
v -0.500000 0.000000 -0.866026
v -0.490393 -0.195090 -0.849386
v -0.461940 -0.382683 -0.800104
v -0.415735 -0.555570 -0.720074
v -0.353554 -0.707107 -0.612373
v -0.277785 -0.831470 -0.481138
v -0.191342 -0.923880 -0.331414
v -0.097545 -0.980785 -0.168954
v 0.000000 0.980785 -0.195091
v -0.000000 0.923880 -0.382684
v -0.000000 0.831470 -0.555571
v 0.000000 0.707107 -0.707107
v 0.000000 0.555570 -0.831470
v 0.000000 0.382683 -0.923880
v 0.000000 0.195090 -0.980786
v 0.000000 0.000000 -1.000000
v 0.000000 -0.195090 -0.980786
v 0.000000 -0.382683 -0.923880
v 0.000000 -0.555570 -0.831470
v 0.000000 -0.707107 -0.707107
v 0.000000 -0.831470 -0.555571
v 0.000000 -0.923880 -0.382684
v 0.000000 -0.980785 -0.195091
v 0.000000 1.000000 -0.000001
v 0.097545 0.980785 -0.168954
v 0.191342 0.923880 -0.331414
v 0.277785 0.831470 -0.481138
v 0.353554 0.707107 -0.612373
v 0.415735 0.555570 -0.720074
v 0.461940 0.382683 -0.800104
v 0.490393 0.195090 -0.849385
v 0.500000 0.000000 -0.866026
v 0.490393 -0.195090 -0.849386
v 0.461940 -0.382683 -0.800104
v 0.415735 -0.555570 -0.720074
v 0.353554 -0.707107 -0.612373
v 0.277785 -0.831470 -0.481138
v 0.191342 -0.923880 -0.331414
v 0.097545 -0.980785 -0.168954
v 0.168953 0.980785 -0.097546
v 0.331414 0.923880 -0.191342
v 0.481138 0.831470 -0.277786
v 0.612373 0.707107 -0.353554
v 0.720074 0.555570 -0.415735
v 0.800103 0.382683 -0.461940
v 0.849385 0.195090 -0.490393
v 0.866026 0.000000 -0.500000
v 0.849385 -0.195090 -0.490393
v 0.800103 -0.382683 -0.461940
v 0.720074 -0.555570 -0.415735
v 0.612373 -0.707107 -0.353554
v 0.481138 -0.831470 -0.277786
v 0.331414 -0.923880 -0.191342
v 0.168953 -0.980785 -0.097546
v 0.195091 0.980785 -0.000000
v 0.382684 0.923880 -0.000000
v 0.555570 0.831470 -0.000000
v 0.707107 0.707107 -0.000000
v 0.831470 0.555570 -0.000000
v 0.923880 0.382683 -0.000000
v 0.980785 0.195090 -0.000000
v 1.000000 0.000000 -0.000000
v 0.980785 -0.195090 -0.000000
v 0.923880 -0.382683 -0.000000
v 0.831470 -0.555570 -0.000000
v 0.707107 -0.707107 -0.000000
v 0.555570 -0.831470 -0.000000
v 0.382684 -0.923880 -0.000000
v 0.195090 -0.980785 -0.000000
v 0.168953 0.980785 0.097545
v 0.331414 0.923880 0.191342
v 0.481138 0.831470 0.277785
v 0.612373 0.707107 0.353553
v 0.720074 0.555570 0.415735
v 0.800103 0.382683 0.461940
v 0.849385 0.195090 0.490393
v 0.866025 0.000000 0.500000
v 0.849385 -0.195090 0.490392
v 0.800103 -0.382683 0.461940
v 0.720074 -0.555570 0.415735
v 0.612373 -0.707107 0.353553
v 0.481138 -0.831470 0.277785
v 0.331414 -0.923880 0.191341
v 0.168953 -0.980785 0.097545
v 0.097545 0.980785 0.168953
v 0.191342 0.923880 0.331413
v 0.277785 0.831470 0.481138
v 0.353553 0.707107 0.612372
v 0.415735 0.555570 0.720074
v 0.461940 0.382683 0.800103
v 0.490393 0.195090 0.849385
v 0.500000 0.000000 0.866025
v 0.490393 -0.195090 0.849385
v 0.461940 -0.382683 0.800103
v 0.415735 -0.555570 0.720074
v 0.353553 -0.707107 0.612372
v 0.277785 -0.831470 0.481138
v 0.191342 -0.923880 0.331413
v 0.097545 -0.980785 0.168953
v -0.000000 0.831470 0.555570
v -0.000000 0.195090 0.980785
v -0.000000 0.000000 1.000000
v 0.000000 -0.382683 0.923880
vn -0.0263 0.9948 0.0980
vn -0.0263 -0.9948 0.0980
vn -0.2577 -0.0947 0.9616
vn -0.0775 0.9541 0.2894
vn -0.2484 -0.2812 0.9270
vn -0.1253 0.8750 0.4677
vn -0.2300 -0.4588 0.8583
vn -0.1676 0.7621 0.6254
vn -0.2028 -0.6212 0.7569
vn -0.2028 0.6212 0.7569
vn -0.1676 -0.7621 0.6254
vn -0.2300 0.4588 0.8583
vn -0.1253 -0.8750 0.4677
vn -0.2484 0.2812 0.9270
vn -0.0775 -0.9541 0.2894
vn -0.2577 0.0947 0.9616
vn -0.6786 0.2812 0.6786
vn -0.2119 -0.9541 0.2119
vn -0.7039 0.0947 0.7039
vn -0.0717 0.9948 0.0717
vn -0.0717 -0.9948 0.0717
vn -0.7039 -0.0947 0.7039
vn -0.2119 0.9541 0.2119
vn -0.6786 -0.2812 0.6786
vn -0.3424 0.8750 0.3424
vn -0.6283 -0.4588 0.6283
vn -0.4578 0.7621 0.4578
vn -0.5541 -0.6212 0.5541
vn -0.5541 0.6212 0.5541
vn -0.4578 -0.7621 0.4578
vn -0.6283 0.4588 0.6283
vn -0.3424 -0.8750 0.3424
vn -0.8583 -0.4588 0.2300
vn -0.6254 0.7621 0.1676
vn -0.7569 -0.6212 0.2028
vn -0.7569 0.6212 0.2028
vn -0.6254 -0.7621 0.1676
vn -0.8583 0.4588 0.2300
vn -0.4677 -0.8750 0.1253
vn -0.9270 0.2812 0.2484
vn -0.2894 -0.9541 0.0775
vn -0.9616 0.0947 0.2577
vn -0.0980 0.9948 0.0263
vn -0.0980 -0.9948 0.0263
vn -0.9616 -0.0947 0.2577
vn -0.2894 0.9541 0.0775
vn -0.9270 -0.2812 0.2484
vn -0.4677 0.8750 0.1253
vn -0.2894 -0.9541 -0.0775
vn -0.9616 0.0947 -0.2577
vn -0.0980 0.9948 -0.0263
vn -0.0980 -0.9948 -0.0263
vn -0.9616 -0.0947 -0.2577
vn -0.2894 0.9541 -0.0775
vn -0.9270 -0.2812 -0.2484
vn -0.4677 0.8750 -0.1253
vn -0.8583 -0.4588 -0.2300
vn -0.6254 0.7621 -0.1676
vn -0.7569 -0.6212 -0.2028
vn -0.7569 0.6212 -0.2028
vn -0.6254 -0.7621 -0.1676
vn -0.8583 0.4588 -0.2300
vn -0.4677 -0.8750 -0.1253
vn -0.9270 0.2812 -0.2484
vn -0.5541 -0.6212 -0.5541
vn -0.5541 0.6212 -0.5541
vn -0.4578 -0.7621 -0.4578
vn -0.6283 0.4588 -0.6283
vn -0.3424 -0.8750 -0.3424
vn -0.6786 0.2812 -0.6786
vn -0.2119 -0.9541 -0.2119
vn -0.7039 0.0947 -0.7039
vn -0.0717 0.9948 -0.0717
vn -0.0717 -0.9948 -0.0717
vn -0.7039 -0.0947 -0.7039
vn -0.2119 0.9541 -0.2119
vn -0.6786 -0.2812 -0.6786
vn -0.3424 0.8750 -0.3424
vn -0.6283 -0.4588 -0.6283
vn -0.4578 0.7621 -0.4578
vn -0.0263 0.9948 -0.0980
vn -0.0263 -0.9948 -0.0980
vn -0.2577 -0.0947 -0.9616
vn -0.0775 0.9541 -0.2894
vn -0.2484 -0.2812 -0.9270
vn -0.1253 0.8750 -0.4677
vn -0.2300 -0.4588 -0.8583
vn -0.1676 0.7621 -0.6254
vn -0.2028 -0.6212 -0.7569
vn -0.2028 0.6212 -0.7569
vn -0.1676 -0.7621 -0.6254
vn -0.2300 0.4588 -0.8583
vn -0.1253 -0.8750 -0.4677
vn -0.2484 0.2812 -0.9270
vn -0.0775 -0.9541 -0.2894
vn -0.2577 0.0947 -0.9616
vn 0.2028 0.6212 -0.7569
vn 0.1676 -0.7621 -0.6254
vn 0.2300 0.4588 -0.8583
vn 0.1253 -0.8750 -0.4677
vn 0.2484 0.2812 -0.9270
vn 0.0775 -0.9541 -0.2894
vn 0.2577 0.0947 -0.9616
vn 0.0263 0.9948 -0.0980
vn 0.0263 -0.9948 -0.0980
vn 0.2577 -0.0947 -0.9616
vn 0.0775 0.9541 -0.2894
vn 0.2484 -0.2812 -0.9270
vn 0.1253 0.8750 -0.4677
vn 0.2300 -0.4588 -0.8583
vn 0.1676 0.7621 -0.6254
vn 0.2028 -0.6212 -0.7569
vn 0.7039 -0.0947 -0.7039
vn 0.2119 0.9541 -0.2119
vn 0.6786 -0.2812 -0.6786
vn 0.3424 0.8750 -0.3424
vn 0.6283 -0.4588 -0.6283
vn 0.4578 0.7621 -0.4578
vn 0.5541 -0.6212 -0.5541
vn 0.5541 0.6212 -0.5541
vn 0.4578 -0.7621 -0.4578
vn 0.6283 0.4588 -0.6283
vn 0.3424 -0.8750 -0.3424
vn 0.6786 0.2812 -0.6786
vn 0.2119 -0.9541 -0.2119
vn 0.7039 0.0947 -0.7039
vn 0.0717 0.9948 -0.0717
vn 0.0717 -0.9948 -0.0717
vn 0.6254 -0.7621 -0.1676
vn 0.8583 0.4588 -0.2300
vn 0.4677 -0.8750 -0.1253
vn 0.9270 0.2812 -0.2484
vn 0.2894 -0.9541 -0.0775
vn 0.9616 0.0947 -0.2577
vn 0.0980 0.9948 -0.0263
vn 0.0980 -0.9948 -0.0263
vn 0.9616 -0.0947 -0.2577
vn 0.2894 0.9541 -0.0775
vn 0.9270 -0.2812 -0.2484
vn 0.4677 0.8750 -0.1253
vn 0.8583 -0.4588 -0.2300
vn 0.6254 0.7621 -0.1676
vn 0.7569 -0.6212 -0.2028
vn 0.7569 0.6212 -0.2028
vn 0.2894 0.9541 0.0775
vn 0.9270 -0.2812 0.2484
vn 0.4677 0.8750 0.1253
vn 0.8583 -0.4588 0.2300
vn 0.6254 0.7621 0.1676
vn 0.7569 -0.6212 0.2028
vn 0.7569 0.6212 0.2028
vn 0.6254 -0.7621 0.1676
vn 0.8583 0.4588 0.2300
vn 0.4677 -0.8750 0.1253
vn 0.9270 0.2812 0.2484
vn 0.2894 -0.9541 0.0775
vn 0.9616 0.0947 0.2577
vn 0.0980 0.9948 0.0263
vn 0.0980 -0.9948 0.0263
vn 0.9616 -0.0947 0.2577
vn 0.6283 0.4588 0.6283
vn 0.3424 -0.8750 0.3424
vn 0.6786 0.2812 0.6786
vn 0.2119 -0.9541 0.2119
vn 0.7039 0.0947 0.7039
vn 0.0717 0.9948 0.0717
vn 0.0717 -0.9948 0.0717
vn 0.7039 -0.0947 0.7039
vn 0.2119 0.9541 0.2119
vn 0.6786 -0.2812 0.6786
vn 0.3424 0.8750 0.3424
vn 0.6283 -0.4588 0.6283
vn 0.4578 0.7621 0.4578
vn 0.5541 -0.6212 0.5541
vn 0.5541 0.6212 0.5541
vn 0.4578 -0.7621 0.4578
vn 0.2484 -0.2812 0.9270
vn 0.1253 0.8750 0.4677
vn 0.2300 -0.4588 0.8583
vn 0.1676 0.7621 0.6254
vn 0.2028 -0.6212 0.7569
vn 0.2028 0.6212 0.7569
vn 0.1676 -0.7621 0.6254
vn 0.2300 0.4588 0.8583
vn 0.1253 -0.8750 0.4677
vn 0.2484 0.2812 0.9270
vn 0.0775 -0.9541 0.2894
vn 0.2577 0.0947 0.9616
vn 0.0263 0.9948 0.0980
vn 0.0263 -0.9948 0.0980
vn 0.2577 -0.0947 0.9616
vn 0.0775 0.9541 0.2894
s off
f 1//1 103//1 13//1
f 12//2 11//2 27//2
f 181//3 21//3 6//3
f 1//4 14//4 2//4
f 6//5 22//5 182//5
f 179//6 14//6 15//6
f 7//7 22//7 23//7
f 179//8 16//8 3//8
f 8//9 23//9 24//9
f 3//10 17//10 4//10
f 8//11 25//11 9//11
f 4//12 18//12 5//12
f 10//13 25//13 26//13
f 180//14 18//14 19//14
f 11//15 26//15 27//15
f 180//16 20//16 181//16
f 18//17 34//17 19//17
f 26//18 42//18 27//18
f 19//19 35//19 20//19
f 13//20 103//20 28//20
f 12//21 27//21 42//21
f 20//22 36//22 21//22
f 13//23 29//23 14//23
f 21//24 37//24 22//24
f 14//25 30//25 15//25
f 22//26 38//26 23//26
f 16//27 30//27 31//27
f 23//28 39//28 24//28
f 17//29 31//29 32//29
f 24//30 40//30 25//30
f 17//31 33//31 18//31
f 26//32 40//32 41//32
f 38//33 52//33 53//33
f 30//34 46//34 31//34
f 38//35 54//35 39//35
f 31//36 47//36 32//36
f 39//37 55//37 40//37
f 32//38 48//38 33//38
f 40//39 56//39 41//39
f 33//40 49//40 34//40
f 41//41 57//41 42//41
f 35//42 49//42 50//42
f 28//43 103//43 43//43
f 12//44 42//44 57//44
f 35//45 51//45 36//45
f 28//46 44//46 29//46
f 36//47 52//47 37//47
f 30//48 44//48 45//48
f 56//49 72//49 57//49
f 49//50 65//50 50//50
f 43//51 103//51 58//51
f 12//52 57//52 72//52
f 50//53 66//53 51//53
f 43//54 59//54 44//54
f 51//55 67//55 52//55
f 44//56 60//56 45//56
f 52//57 68//57 53//57
f 45//58 61//58 46//58
f 53//59 69//59 54//59
f 47//60 61//60 62//60
f 55//61 69//61 70//61
f 47//62 63//62 48//62
f 56//63 70//63 71//63
f 49//64 63//64 64//64
f 68//65 84//65 69//65
f 61//66 77//66 62//66
f 69//67 85//67 70//67
f 62//68 78//68 63//68
f 70//69 86//69 71//69
f 64//70 78//70 79//70
f 71//71 87//71 72//71
f 65//72 79//72 80//72
f 58//73 103//73 73//73
f 12//74 72//74 87//74
f 65//75 81//75 66//75
f 58//76 74//76 59//76
f 67//77 81//77 82//77
f 60//78 74//78 75//78
f 67//79 83//79 68//79
f 61//80 75//80 76//80
f 73//81 103//81 88//81
f 12//82 87//82 102//82
f 80//83 96//83 81//83
f 73//84 89//84 74//84
f 81//85 97//85 82//85
f 75//86 89//86 90//86
f 83//87 97//87 98//87
f 75//88 91//88 76//88
f 84//89 98//89 99//89
f 76//90 92//90 77//90
f 84//91 100//91 85//91
f 77//92 93//92 78//92
f 86//93 100//93 101//93
f 79//94 93//94 94//94
f 87//95 101//95 102//95
f 79//96 95//96 80//96
f 92//97 107//97 108//97
f 99//98 116//98 100//98
f 92//99 109//99 93//99
f 100//100 117//100 101//100
f 94//101 109//101 110//101
f 101//102 118//102 102//102
f 94//103 111//103 95//103
f 88//104 103//104 104//104
f 12//105 102//105 118//105
f 95//106 112//106 96//106
f 88//107 105//107 89//107
f 96//108 113//108 97//108
f 90//109 105//109 106//109
f 98//110 113//110 114//110
f 91//111 106//111 107//111
f 98//112 115//112 99//112
f 111//113 127//113 112//113
f 105//114 119//114 120//114
f 112//115 128//115 113//115
f 105//116 121//116 106//116
f 114//117 128//117 129//117
f 107//118 121//118 122//118
f 114//119 130//119 115//119
f 107//120 123//120 108//120
f 115//121 131//121 116//121
f 108//122 124//122 109//122
f 116//123 132//123 117//123
f 109//124 125//124 110//124
f 117//125 133//125 118//125
f 110//126 126//126 111//126
f 104//127 103//127 119//127
f 12//128 118//128 133//128
f 130//129 146//129 131//129
f 123//130 139//130 124//130
f 131//131 147//131 132//131
f 124//132 140//132 125//132
f 132//133 148//133 133//133
f 125//134 141//134 126//134
f 119//135 103//135 134//135
f 12//136 133//136 148//136
f 126//137 142//137 127//137
f 120//138 134//138 135//138
f 127//139 143//139 128//139
f 121//140 135//140 136//140
f 128//141 144//141 129//141
f 121//142 137//142 122//142
f 130//143 144//143 145//143
f 122//144 138//144 123//144
f 134//145 150//145 135//145
f 142//146 158//146 143//146
f 136//147 150//147 151//147
f 144//148 158//148 159//148
f 137//149 151//149 152//149
f 144//150 160//150 145//150
f 137//151 153//151 138//151
f 145//152 161//152 146//152
f 138//153 154//153 139//153
f 146//154 162//154 147//154
f 140//155 154//155 155//155
f 147//156 163//156 148//156
f 140//157 156//157 141//157
f 134//158 103//158 149//158
f 12//159 148//159 163//159
f 141//160 157//160 142//160
f 153//161 169//161 154//161
f 161//162 177//162 162//162
f 155//163 169//163 170//163
f 162//164 178//164 163//164
f 155//165 171//165 156//165
f 149//166 103//166 164//166
f 12//167 163//167 178//167
f 156//168 172//168 157//168
f 149//169 165//169 150//169
f 157//170 173//170 158//170
f 150//171 166//171 151//171
f 159//172 173//172 174//172
f 151//173 167//173 152//173
f 159//174 175//174 160//174
f 152//175 168//175 153//175
f 160//176 176//176 161//176
f 172//177 182//177 173//177
f 165//178 179//178 166//178
f 174//179 182//179 7//179
f 166//180 3//180 167//180
f 174//181 8//181 175//181
f 168//182 3//182 4//182
f 175//183 9//183 176//183
f 168//184 5//184 169//184
f 176//185 10//185 177//185
f 170//186 5//186 180//186
f 177//187 11//187 178//187
f 170//188 181//188 171//188
f 164//189 103//189 1//189
f 12//190 178//190 11//190
f 172//191 181//191 6//191
f 165//192 1//192 2//192
f 181//3 20//3 21//3
f 1//4 13//4 14//4
f 6//5 21//5 22//5
f 179//6 2//6 14//6
f 7//7 182//7 22//7
f 179//8 15//8 16//8
f 8//9 7//9 23//9
f 3//10 16//10 17//10
f 8//11 24//11 25//11
f 4//12 17//12 18//12
f 10//13 9//13 25//13
f 180//14 5//14 18//14
f 11//15 10//15 26//15
f 180//16 19//16 20//16
f 18//17 33//17 34//17
f 26//18 41//18 42//18
f 19//19 34//19 35//19
f 20//22 35//22 36//22
f 13//23 28//23 29//23
f 21//24 36//24 37//24
f 14//25 29//25 30//25
f 22//26 37//26 38//26
f 16//27 15//27 30//27
f 23//28 38//28 39//28
f 17//29 16//29 31//29
f 24//30 39//30 40//30
f 17//31 32//31 33//31
f 26//32 25//32 40//32
f 38//33 37//33 52//33
f 30//34 45//34 46//34
f 38//35 53//35 54//35
f 31//36 46//36 47//36
f 39//37 54//37 55//37
f 32//38 47//38 48//38
f 40//39 55//39 56//39
f 33//40 48//40 49//40
f 41//41 56//41 57//41
f 35//42 34//42 49//42
f 35//45 50//45 51//45
f 28//46 43//46 44//46
f 36//47 51//47 52//47
f 30//48 29//48 44//48
f 56//49 71//49 72//49
f 49//50 64//50 65//50
f 50//53 65//53 66//53
f 43//54 58//54 59//54
f 51//55 66//55 67//55
f 44//56 59//56 60//56
f 52//57 67//57 68//57
f 45//58 60//58 61//58
f 53//59 68//59 69//59
f 47//60 46//60 61//60
f 55//61 54//61 69//61
f 47//62 62//62 63//62
f 56//63 55//63 70//63
f 49//64 48//64 63//64
f 68//65 83//65 84//65
f 61//66 76//66 77//66
f 69//67 84//67 85//67
f 62//68 77//68 78//68
f 70//69 85//69 86//69
f 64//70 63//70 78//70
f 71//71 86//71 87//71
f 65//72 64//72 79//72
f 65//75 80//75 81//75
f 58//76 73//76 74//76
f 67//77 66//77 81//77
f 60//78 59//78 74//78
f 67//79 82//79 83//79
f 61//80 60//80 75//80
f 80//83 95//83 96//83
f 73//84 88//84 89//84
f 81//85 96//85 97//85
f 75//86 74//86 89//86
f 83//87 82//87 97//87
f 75//88 90//88 91//88
f 84//89 83//89 98//89
f 76//90 91//90 92//90
f 84//91 99//91 100//91
f 77//92 92//92 93//92
f 86//93 85//93 100//93
f 79//94 78//94 93//94
f 87//95 86//95 101//95
f 79//96 94//96 95//96
f 92//97 91//97 107//97
f 99//98 115//98 116//98
f 92//99 108//99 109//99
f 100//100 116//100 117//100
f 94//101 93//101 109//101
f 101//102 117//102 118//102
f 94//103 110//103 111//103
f 95//106 111//106 112//106
f 88//107 104//107 105//107
f 96//108 112//108 113//108
f 90//109 89//109 105//109
f 98//110 97//110 113//110
f 91//111 90//111 106//111
f 98//112 114//112 115//112
f 111//113 126//113 127//113
f 105//114 104//114 119//114
f 112//115 127//115 128//115
f 105//116 120//116 121//116
f 114//117 113//117 128//117
f 107//118 106//118 121//118
f 114//119 129//119 130//119
f 107//120 122//120 123//120
f 115//121 130//121 131//121
f 108//122 123//122 124//122
f 116//123 131//123 132//123
f 109//124 124//124 125//124
f 117//125 132//125 133//125
f 110//126 125//126 126//126
f 130//129 145//129 146//129
f 123//130 138//130 139//130
f 131//131 146//131 147//131
f 124//132 139//132 140//132
f 132//133 147//133 148//133
f 125//134 140//134 141//134
f 126//137 141//137 142//137
f 120//138 119//138 134//138
f 127//139 142//139 143//139
f 121//140 120//140 135//140
f 128//141 143//141 144//141
f 121//142 136//142 137//142
f 130//143 129//143 144//143
f 122//144 137//144 138//144
f 134//145 149//145 150//145
f 142//146 157//146 158//146
f 136//147 135//147 150//147
f 144//148 143//148 158//148
f 137//149 136//149 151//149
f 144//150 159//150 160//150
f 137//151 152//151 153//151
f 145//152 160//152 161//152
f 138//153 153//153 154//153
f 146//154 161//154 162//154
f 140//155 139//155 154//155
f 147//156 162//156 163//156
f 140//157 155//157 156//157
f 141//160 156//160 157//160
f 153//161 168//161 169//161
f 161//162 176//162 177//162
f 155//163 154//163 169//163
f 162//164 177//164 178//164
f 155//165 170//165 171//165
f 156//168 171//168 172//168
f 149//169 164//169 165//169
f 157//170 172//170 173//170
f 150//171 165//171 166//171
f 159//172 158//172 173//172
f 151//173 166//173 167//173
f 159//174 174//174 175//174
f 152//175 167//175 168//175
f 160//176 175//176 176//176
f 172//177 6//177 182//177
f 165//178 2//178 179//178
f 174//179 173//179 182//179
f 166//180 179//180 3//180
f 174//181 7//181 8//181
f 168//182 167//182 3//182
f 175//183 8//183 9//183
f 168//184 4//184 5//184
f 176//185 9//185 10//185
f 170//186 169//186 5//186
f 177//187 10//187 11//187
f 170//188 180//188 181//188
f 172//191 171//191 181//191
f 165//192 164//192 1//192
